<svg width="127" height="117" viewBox="0 0 127 117" fill="none" xmlns="http://www.w3.org/2000/svg">
<path d="M92.075 112.993C93.8285 116.031 97.7348 117.096 100.582 115.048C110.137 108.175 117.63 98.7519 122.166 87.8004C127.516 74.8859 128.454 60.5672 124.836 47.065C121.218 33.5628 113.246 21.6316 102.156 13.1221C91.0665 4.61248 77.4785 -6.11021e-07 63.5 0C49.5215 6.11021e-07 35.9336 4.61248 24.8437 13.1221C13.7538 21.6317 5.78164 33.5628 2.16373 47.065C-1.45418 60.5672 -0.515676 74.8859 4.83367 87.8004C9.36994 98.7519 16.8631 108.175 26.4183 115.048C29.2653 117.096 33.1715 116.031 34.925 112.993C36.6785 109.956 35.6079 106.103 32.8131 103.984C25.6559 98.559 20.0327 91.3074 16.5669 82.9403C12.2875 72.6087 11.5367 61.1538 14.431 50.352C17.3253 39.5502 23.703 30.0053 32.5749 23.1977C41.4469 16.39 52.3172 12.7 63.5 12.7C74.6828 12.7 85.5532 16.39 94.4251 23.1977C103.297 30.0053 109.675 39.5502 112.569 50.352C115.463 61.1538 114.713 72.6087 110.433 82.9403C106.967 91.3074 101.344 98.559 94.187 103.984C91.3921 106.103 90.3215 109.956 92.075 112.993Z" fill="white"/>
<path d="M79.6925 91.5462C81.2707 94.2797 84.8002 95.2471 87.2671 93.2782C92.2773 89.2793 96.2231 84.0595 98.6998 78.0802C101.909 70.3316 102.473 61.7403 100.302 53.639C98.1311 45.5377 93.3478 38.379 86.6938 33.2732C80.0399 28.1675 71.8871 25.4 63.5 25.4C55.1129 25.4 46.9602 28.1675 40.3062 33.2732C33.6523 38.379 28.869 45.5377 26.6982 53.639C24.5275 61.7403 25.0906 70.3316 28.3002 78.0802C30.7769 84.0595 34.7227 89.2793 39.733 93.2782C42.1999 95.2471 45.7294 94.2797 47.3075 91.5462C48.8857 88.8128 47.8937 85.3562 45.5584 83.2329C42.6682 80.605 40.3728 77.358 38.8602 73.7062C36.6134 68.2821 36.2193 62.2682 37.7388 56.5973C39.2583 50.9264 42.6066 45.9153 47.2644 42.3413C51.9221 38.7672 57.629 36.83 63.5 36.83C69.371 36.83 75.0779 38.7672 79.7357 42.3413C84.3935 45.9153 87.7417 50.9264 89.2613 56.5973C90.7808 62.2682 90.3866 68.2821 88.1399 73.7062C86.6273 77.358 84.3318 80.605 81.4417 83.2329C79.1064 85.3562 78.1144 88.8128 79.6925 91.5462Z" fill="white"/>
</svg>
