<svg xmlns="http://www.w3.org/2000/svg" version="1.0" width="512.000000pt" height="512.000000pt" viewBox="0 0 512.000000 512.000000" preserveAspectRatio="xMidYMid meet">

<g transform="translate(0.000000,512.000000) scale(0.100000,-0.100000)" fill="#ffffff" stroke="none">
<path d="M78 5100 c-23 -12 -46 -36 -58 -60 -20 -39 -20 -55 -20 -2077 0 -1920 1 -2040 18 -2073 9 -19 32 -45 51 -57 32 -22 43 -23 231 -23 188 0 199 1 231 23 19 12 42 38 51 57 17 33 18 153 18 2073 0 2258 5 2080 -64 2130 -29 21 -42 22 -226 24 -179 3 -198 1 -232 -17z" fill="#ffffff"/>
<path d="M1890 5102 c-19 -9 -45 -32 -57 -51 l-23 -34 0 -2049 c0 -2227 -4 -2073 55 -2128 26 -25 28 -25 233 -28 203 -3 208 -3 242 20 19 13 43 39 52 58 17 33 18 153 18 2069 0 2014 0 2035 -20 2076 -13 26 -34 49 -59 63 -36 20 -52 22 -222 22 -155 0 -189 -3 -219 -18z" fill="#ffffff"/>
<path d="M3705 5106 c-50 -22 -83 -69 -90 -128 -3 -29 -5 -955 -3 -2058 l3 -2005 22 -35 c41 -66 58 -70 278 -70 183 0 200 2 232 21 18 11 41 35 51 52 16 30 17 160 17 2084 l0 2052 -21 27 c-49 67 -57 69 -267 71 -145 2 -200 -1 -222 -11z" fill="#ffffff"/>
<path d="M972 4290 c-20 -12 -41 -38 -53 -64 -19 -43 -19 -84 -17 -2084 l3 -2041 21 -27 c50 -68 55 -69 279 -69 191 0 205 1 232 21 15 12 37 36 48 55 20 34 20 52 20 2079 0 2027 0 2045 -20 2078 -40 67 -59 72 -281 72 -182 0 -202 -2 -232 -20z" fill="#ffffff"/>
<path d="M2786 4291 c-16 -11 -38 -34 -50 -53 l-21 -33 -3 -2039 c-2 -2025 -2 -2040 18 -2081 13 -27 34 -49 60 -64 38 -21 48 -22 232 -19 185 3 194 4 227 27 66 47 61 -110 61 2131 0 2218 4 2065 -55 2120 -26 25 -28 25 -233 28 -191 2 -209 1 -236 -17z" fill="#ffffff"/>
<path d="M4592 4290 c-18 -11 -41 -34 -52 -52 -20 -33 -20 -55 -20 -2076 0 -2243 -5 -2086 61 -2133 33 -23 42 -24 226 -27 177 -3 194 -2 232 18 27 13 48 34 61 60 20 39 20 54 20 2077 0 1920 -1 2040 -18 2073 -9 19 -32 45 -51 57 -32 22 -43 23 -230 23 -178 0 -199 -2 -229 -20z" fill="#ffffff"/>
</g>
</svg>