<svg xmlns="http://www.w3.org/2000/svg" version="1.0" width="512.000000pt" height="512.000000pt" viewBox="0 0 512.000000 512.000000" preserveAspectRatio="xMidYMid meet">

<g transform="translate(0.000000,512.000000) scale(0.100000,-0.100000)" fill="#ffffff" stroke="none">
<path d="M3250 4271 c-19 -10 -45 -36 -57 -57 -21 -37 -23 -50 -23 -245 0 -198 1 -207 23 -240 12 -18 38 -44 56 -56 34 -23 36 -23 400 -23 l366 0 -705 -705 -705 -705 -325 324 c-368 366 -361 361 -505 361 -63 -1 -91 -6 -130 -24 -40 -19 -204 -178 -828 -800 -437 -436 -787 -792 -798 -813 -46 -90 -18 -147 155 -316 108 -105 141 -132 171 -138 58 -11 111 1 152 34 21 17 319 312 663 656 l625 626 325 -324 c303 -302 329 -325 385 -346 76 -28 176 -24 250 10 41 19 203 176 888 859 l837 836 0 -345 c0 -196 4 -360 10 -380 11 -41 61 -94 103 -109 16 -6 108 -11 216 -11 174 0 190 2 231 23 30 14 53 36 67 62 l23 40 -3 862 c-2 857 -2 862 -23 890 -11 15 -36 38 -54 51 l-33 22 -861 0 c-820 0 -863 -1 -896 -19z" fill="#ffffff"/>
</g>
</svg>