<svg xmlns="http://www.w3.org/2000/svg" version="1.0" width="512.000000pt" height="512.000000pt" viewBox="0 0 512.000000 512.000000" preserveAspectRatio="xMidYMid meet">

<g transform="translate(0.000000,512.000000) scale(0.100000,-0.100000)" fill="#fefefe" stroke="none">
<path d="M132 5082 c-38 -12 -93 -63 -113 -106 -17 -37 -19 -70 -19 -372 0 -327 0 -331 23 -375 16 -29 40 -54 72 -74 l48 -30 1011 -3 c732 -2 1025 1 1066 9 43 9 64 20 96 53 61 61 66 97 62 459 -3 286 -4 304 -24 342 -27 49 -49 70 -97 90 -32 13 -161 15 -1069 14 -568 -1 -1043 -4 -1056 -7z" fill="#fefefe"/>
<path d="M2845 5071 c-49 -22 -91 -69 -105 -119 -8 -25 -10 -149 -8 -368 l3 -331 28 -40 c15 -22 46 -50 70 -64 l42 -24 1010 -3 c731 -2 1024 1 1065 9 43 9 64 20 96 53 61 61 66 96 62 458 -3 287 -4 305 -24 343 -27 49 -49 70 -97 90 -32 13 -162 15 -1069 15 -981 0 -1035 -1 -1073 -19z" fill="#fefefe"/>
<path d="M17 3724 c-4 -4 -7 -223 -7 -486 l0 -478 432 0 c419 0 433 1 476 21 26 13 54 38 70 62 l27 41 0 362 0 362 -31 39 c-63 79 -55 78 -534 81 -234 2 -429 0 -433 -4z" fill="#fefefe"/>
<path d="M1535 3721 c-54 -14 -95 -41 -123 -83 l-27 -41 -3 -331 c-2 -218 0 -344 8 -368 14 -50 56 -97 105 -119 38 -18 92 -19 1074 -19 l1035 0 44 21 c29 15 54 37 73 67 l29 46 0 342 c0 218 -4 353 -11 371 -13 35 -54 79 -94 101 -27 16 -120 17 -1055 19 -564 1 -1038 -2 -1055 -6z" fill="#fefefe"/>
<path d="M4265 3721 c-54 -14 -95 -41 -123 -83 l-27 -41 -3 -331 c-3 -355 -1 -382 45 -437 58 -68 60 -69 536 -69 l427 0 0 485 0 485 -412 -1 c-227 -1 -426 -4 -443 -8z" fill="#fefefe"/>
<path d="M115 2341 c-49 -22 -91 -69 -105 -119 -8 -24 -10 -150 -8 -368 l3 -331 28 -41 c15 -23 46 -52 70 -64 l42 -23 1045 0 c1164 0 1072 -6 1138 69 48 55 54 107 50 449 -3 292 -4 303 -26 344 -12 24 -41 55 -64 70 l-42 28 -1045 2 c-998 3 -1048 2 -1086 -16z" fill="#fefefe"/>
<path d="M2845 2341 c-49 -22 -91 -69 -105 -119 -8 -25 -10 -148 -8 -367 3 -326 3 -330 26 -368 13 -20 45 -50 70 -65 l47 -27 1045 0 c1164 0 1072 -6 1138 69 48 55 54 106 50 448 -3 287 -4 305 -24 343 -27 49 -49 70 -97 90 -32 13 -162 15 -1069 15 -981 0 -1035 -1 -1073 -19z" fill="#fefefe"/>
<path d="M17 994 c-4 -4 -7 -223 -7 -486 l0 -478 432 0 c419 0 433 1 476 21 26 13 54 38 70 62 l27 41 0 362 0 362 -31 39 c-63 79 -55 78 -534 81 -234 2 -429 0 -433 -4z" fill="#fefefe"/>
<path d="M1540 991 c-57 -12 -98 -39 -128 -83 l-27 -42 -3 -340 c-3 -338 -2 -341 20 -385 13 -25 40 -59 61 -75 l39 -31 1062 0 1062 0 42 28 c81 53 82 60 82 447 0 263 -3 348 -14 373 -20 49 -77 93 -136 106 -57 12 -1999 14 -2060 2z" fill="#fefefe"/>
<path d="M4268 991 c-56 -11 -113 -54 -137 -103 -20 -42 -21 -58 -21 -374 0 -322 1 -331 23 -374 12 -24 39 -58 60 -74 l39 -31 444 -3 444 -3 0 486 0 485 -407 -1 c-225 -1 -425 -5 -445 -8z" fill="#fefefe"/>
</g>
</svg>